<svg height="511pt" viewBox="0 -33 511.93227 511" width="511pt" xmlns="http://www.w3.org/2000/svg"><path d="m2.175781 157.699219c-1.617187 1.808593-2.390625 4.21875-2.1249998 6.628906l28.6132808 257.886719c.976563 8.601562 6.25 16.117187 14.003907 19.960937 1.585937 1.773438 3.847656 2.796875 6.230469 2.816407h409.238281c12.886719-.023438 23.753906-9.601563 25.398437-22.382813l28.398438-224.007813c0-.09375 0-.171874 0-.265624-.046875-1.105469-.152344-2.210938-.324219-3.304688-.199219-.511719-.449219-1.003906-.742187-1.464844-.21875-.492187-.480469-.960937-.785157-1.402344-.34375-.351562-.714843-.675781-1.109375-.972656-.441406-.429687-.933594-.8125-1.460937-1.132812-.085938 0-.128907-.128906-.214844-.171875l-39.667969-19.824219-26.753906-119.464844c-.496094-2.21875-1.851562-4.148437-3.777344-5.359375-1.921875-1.214843-4.246094-1.609375-6.460937-1.101562l-209.171875 46.96875-88.113282-88.140625c-3.332031-3.332032-8.734374-3.332032-12.066406 0l-118.785156 118.808594c-3.332031 3.332031-3.332031 8.734374 0 12.066406l21.019531 21.019531h-14.984375c-2.429687 0-4.738281 1.03125-6.359375 2.839844zm466.175781 248.976562-25.523437-229.929687 51.414063 25.703125zm-20.410156-246.457031-8.925781-4.464844c-1.558594-.726562-3.300781-.957031-4.992187-.65625-.414063-.113281-.835938-.195312-1.261719-.238281h-46.023438l-57.511719-41.082031c-2.132812-1.523438-4.847656-1.984375-7.363281-1.246094-2.511719.734375-4.550781 2.585938-5.523437 5.019531l-13.40625 33.570313-51.199219-29.269532c-2.644531-1.527343-5.898437-1.523437-8.542969.003907-2.640625 1.527343-4.261718 4.351562-4.257812 7.402343v25.601563h-48.894532l-8.40625-37.328125 244.460938-54.832031zm-90.566406-5.359375h-37.546875l8.355469-20.875zm-82.300781 0h-19.074219v-10.898437zm-254.472657-27.050781 106.714844-106.71875 74.4375 74.4375-32.195312 7.277344c-2.21875.496093-4.144532 1.855468-5.355469 3.777343s-1.605469 4.25-1.097656 6.460938l9.4375 41.816406h-124.890625zm404.519532 44.117187 2.691406 24.171875c-.140625.46875-.238281.945313-.292969 1.425782.015625 1.242187.308594 2.460937.855469 3.578124l10.007812 90.289063h-139.714843c-4.714844 0-8.535157 3.820313-8.535157 8.535156 0 4.710938 3.820313 8.53125 8.535157 8.53125h141.652343l12.203126 109.996094c.265624 2.417969-.511719 4.835937-2.140626 6.648437-1.625 1.808594-3.949218 2.835938-6.382812 2.824219h-389.890625c-4.34375-.003906-7.996094-3.277343-8.472656-7.597656l-12.414063-111.871094h128.910156c4.714844 0 8.535157-3.820312 8.535157-8.53125 0-4.714843-3.820313-8.535156-8.535157-8.535156h-130.804687l-13.261719-119.464844zm0 0"/><path d="m230.402344 342.589844c23.5625 0 42.664062-19.101563 42.664062-42.664063 0-23.566406-19.101562-42.667969-42.664062-42.667969-23.566406 0-42.667969 19.101563-42.667969 42.667969.027344 23.550781 19.113281 42.636719 42.667969 42.664063zm0-68.265625c14.136718 0 25.597656 11.460937 25.597656 25.601562 0 14.136719-11.460938 25.597657-25.597656 25.597657-14.140625 0-25.601563-11.460938-25.601563-25.597657 0-14.140625 11.460938-25.601562 25.601563-25.601562zm0 0"/><path d="m392.535156 137.792969c14.136719 0 25.597656-11.464844 25.597656-25.601563 0-14.136718-11.460937-25.601562-25.597656-25.601562-14.140625 0-25.601562 11.464844-25.601562 25.601562 0 14.136719 11.460937 25.601563 25.601562 25.601563zm0-34.136719c4.710938 0 8.53125 3.820312 8.53125 8.535156 0 4.710938-3.820312 8.53125-8.53125 8.53125-4.714844 0-8.535156-3.820312-8.535156-8.53125 0-4.714844 3.820312-8.535156 8.535156-8.535156zm0 0"/><path d="m135.484375 54.957031c-3.332031-3.332031-8.734375-3.332031-12.066406 0l-68.265625 68.269531c-2.21875 2.140626-3.109375 5.3125-2.328125 8.296876.78125 2.984374 3.109375 5.3125 6.09375 6.09375s6.15625-.109376 8.300781-2.328126l68.265625-68.265624c3.332031-3.332032 3.332031-8.734376 0-12.066407zm0 0"/><path d="m161.085938 80.558594c-3.332032-3.332032-8.734376-3.332032-12.066407 0l-42.667969 42.667968c-2.21875 2.140626-3.109374 5.3125-2.328124 8.296876.78125 2.984374 3.113281 5.3125 6.09375 6.09375 2.984374.78125 6.15625-.109376 8.300781-2.328126l42.667969-42.664062c3.328124-3.332031 3.328124-8.734375 0-12.066406zm0 0"/></svg>